<?xml version="1.0" encoding="utf-8"?>
<svg viewBox="0 0 1024 1024" xmlns="http://www.w3.org/2000/svg">
  <g id="g1624" transform="matrix(4.657163, 0, 0, 4.657163, 28.002302, -173.537903)" style="">
    <path style="fill-opacity: 1; stroke-width: 0.264583; fill: rgba(9, 66, 212, 0.4);" d="M 77.186 226.374 C 76.677 226.235 74.414 225.578 72.159 224.913 C 66.157 223.143 54.441 218.448 54.433 217.809 C 54.431 217.664 55.397 215.568 56.578 213.151 L 58.726 208.758 L 60.482 208.352 C 61.447 208.128 63.249 207.566 64.486 207.103 C 65.723 206.64 67.271 206.079 67.925 205.856 C 68.58 205.634 70.069 204.968 71.233 204.377 C 72.397 203.787 73.826 203.069 74.408 202.783 C 77.541 201.242 82.043 197.242 83.859 194.386 C 85.994 191.028 86.838 187.817 86.647 183.784 C 86.525 181.228 86.431 180.813 85.625 179.3 C 83.943 176.145 81.924 174.388 73.879 169.073 C 69.928 166.464 68.163 165.215 63.347 161.619 C 59.321 158.612 54.393 153.863 51.389 150.095 C 50.083 148.456 48.142 145.171 47.31 143.191 C 46.099 140.31 45.335 136.019 45.532 133.207 C 46.035 126.041 48.842 120.599 54.299 116.209 C 55.318 115.389 56.36 114.549 56.616 114.341 C 58.148 113.094 63.005 110.978 66.206 110.163 C 69.287 109.378 73.448 109.172 77.542 109.602 C 81.152 109.981 86.31 111.089 86.83 111.598 C 86.968 111.733 87.299 111.843 87.565 111.843 C 88.425 111.843 91.262 113.168 94.516 115.089 C 96.997 116.553 98.214 117.488 100.081 119.364 C 101.519 120.809 102.769 122.345 103.218 123.221 C 104.207 125.149 104.281 125.205 104.713 124.35 C 105.384 123.024 107.086 120.73 108.429 119.342 C 113.139 114.476 121.262 110.797 129.695 109.711 C 134.54 109.087 135.946 109.085 140.024 109.701 C 146.658 110.702 152.569 113.797 157.025 118.603 C 159.161 120.908 159.971 122.153 161.29 125.16 C 163.315 129.778 163.764 134.328 162.69 139.367 C 161.122 146.728 155.721 154.199 147.172 160.832 C 145.133 162.414 143.297 163.848 143.092 164.019 C 142.665 164.375 132.637 171.004 126.464 175.011 C 120.847 178.657 111.205 185.62 110.259 186.713 C 110.186 186.798 109.591 187.272 108.936 187.768 C 108.281 188.264 107.439 188.975 107.064 189.349 C 106.689 189.722 106.094 190.254 105.741 190.532 C 101.469 193.889 92.586 203.192 88.728 208.349 C 84.702 213.731 81.319 219.762 79.674 224.49 C 78.868 226.808 78.846 226.824 77.186 226.373 L 77.186 226.374 Z M 106.575 176.468 C 109.79 171.336 110.997 168.667 112.347 163.702 C 113.505 159.439 113.706 153.829 112.819 150.515 C 112.242 148.361 112 148.232 110.231 149.14 C 105.982 151.319 101.735 151.287 98.356 149.051 C 97.746 148.648 97.098 148.375 96.915 148.445 C 96.389 148.647 95.761 150.21 95.459 152.068 C 94.398 158.612 96.481 167.467 100.718 174.417 C 101.971 176.473 104.217 179.56 104.466 179.57 C 104.554 179.574 105.503 178.178 106.575 176.468 Z M 75.134 149.432 C 79.229 148.384 82.001 146.486 85.064 142.631 C 85.395 142.214 86.01 141.159 86.431 140.286 C 88.978 135.007 88.549 128.746 85.311 123.919 C 82.776 120.142 78.891 117.521 74.648 116.726 C 69.329 115.729 64.329 117.15 60.4 120.773 C 56.659 124.224 54.954 128.043 54.936 133.01 C 54.917 138.44 56.77 142.458 60.889 145.916 C 65.022 149.386 70.258 150.679 75.134 149.432 Z M 69.111 141.389 C 67.762 140.946 66.738 140.308 65.456 139.114 C 62.671 136.521 62.174 132.062 64.281 128.585 C 65.805 126.07 67.828 124.881 71.042 124.61 C 74.333 124.332 77.625 126.343 79.101 129.532 C 79.824 131.095 79.883 131.432 79.776 133.384 C 79.577 137.002 77.838 139.691 74.841 141.017 C 73.339 141.682 70.553 141.862 69.111 141.389 Z M 141.215 149.297 C 143.621 148.535 144.105 148.316 145.778 147.235 C 150.22 144.364 152.857 140.257 153.671 134.94 C 153.955 133.084 153.938 132.489 153.541 130.458 C 151.547 120.245 141.365 114.056 131.825 117.258 C 128.959 118.22 126.924 119.546 124.839 121.808 C 122.814 124.006 121.675 125.974 120.842 128.717 C 120.342 130.363 120.274 131.091 120.369 133.744 C 120.495 137.215 120.94 138.844 122.444 141.334 C 123.674 143.371 126.169 145.933 128.201 147.246 C 131.988 149.692 137.317 150.532 141.215 149.297 Z M 134.132 141.236 C 130.383 139.845 128.275 136.433 128.574 132.243 C 129.064 125.407 137.432 122.105 142.643 126.691 C 143.313 127.281 143.861 127.932 143.861 128.138 C 143.861 128.344 143.964 128.512 144.089 128.512 C 144.657 128.512 145.316 131.061 145.285 133.142 C 145.235 136.665 143.759 139.261 140.935 140.798 C 139.047 141.826 136.211 142.008 134.132 141.236 Z" id="path27"/>
    <path style="fill-opacity: 1; stroke-width: 0.264583; fill: rgba(219, 26, 26, 0.63);" d="m 96.40623,230.64758 c -0.21828,-0.0436 -1.78907,-0.22695 -3.49064,-0.40738 -1.70157,-0.18044 -3.22016,-0.40619 -3.37464,-0.50167 -0.61483,-0.37998 2.56093,-8.32027 5.33897,-13.34892 1.56574,-2.83422 5.692,-8.848 6.82223,-9.94299 0.0751,-0.0728 0.47343,-0.54901 0.88517,-1.05833 4.30195,-5.32149 12.10379,-12.48846 19.48349,-17.89804 6.10342,-4.47401 6.03515,-4.42695 11.82451,-8.15093 1.57293,-1.01178 2.9194,-1.90475 2.99216,-1.98438 0.0728,-0.0796 0.78713,-0.57298 1.5875,-1.09633 15.46777,-10.11429 21.11207,-14.71308 25.78515,-21.00886 2.15598,-2.90465 2.43105,-3.34305 3.71001,-5.91287 2.62559,-5.27565 3.47913,-9.4124 3.22925,-15.65067 -0.14974,-3.73813 -0.26531,-4.35721 -1.70075,-9.11038 -0.65299,-2.16224 -2.86506,-5.84295 -5.49659,-9.14587 -5.57508,-6.99748 -15.14767,-11.81941 -25.26249,-12.72532 -9.04454,-0.81004 -19.68044,1.31654 -28.53843,5.70608 -1.36233,0.6751 -2.52817,1.17625 -2.59075,1.11367 -0.24066,-0.24066 1.08046,-3.58672 2.25279,-5.70578 3.77077,-6.815838 10.80469,-11.983348 19.08681,-14.022228 4.32122,-1.0638 8.75211,-1.2384 13.62604,-0.53696 11.87436,1.70893 23.83469,8.55127 31.87117,18.233038 6.18078,7.44616 9.60059,14.3071 11.41828,22.90769 0.54213,2.56517 0.61177,3.63099 0.62099,9.50376 0.01,6.21163 -0.0332,6.81736 -0.70458,9.94311 -0.91977,4.28201 -2.53216,9.13631 -4.25529,12.81106 -1.4177,3.02341 -4.46004,8.31444 -5.70507,9.92187 -0.39449,0.50933 -0.93002,1.26133 -1.19007,1.67111 -0.26004,0.40979 -0.63729,0.94557 -0.83833,1.19063 -0.20104,0.24505 -1.20436,1.50816 -2.2296,2.80691 -4.15974,5.26941 -12.94904,13.99505 -19.59479,19.45285 -0.94589,0.7768 -1.77933,1.49157 -1.85209,1.58838 -0.0728,0.0968 -0.37972,0.3477 -0.68212,0.55754 -0.30242,0.20985 -1.05883,0.82019 -1.68093,1.35632 l -1.1311,0.97477 1.34747,3.13988 c 0.7411,1.72693 1.71554,3.90765 2.16541,4.84605 1.16695,2.43416 1.92529,4.05984 2.98667,6.40264 l 0.92901,2.05062 -1.50418,0.69108 c -0.8273,0.38009 -2.45669,1.08262 -3.62085,1.56118 -1.16417,0.47856 -2.9897,1.23639 -4.05673,1.68408 -2.30386,0.96659 -6.58921,2.45006 -9.17244,3.17524 -1.01864,0.28597 -2.85543,0.82689 -4.08174,1.20206 -2.88276,0.88193 -11.83376,2.68167 -15.23284,3.06281 -1.45521,0.16317 -3.65786,0.4065 -4.89479,0.54073 -2.01765,0.21895 -14.09795,0.30927 -15.08125,0.11275 z m -37.1906,-30.56917 c -0.42741,-0.44658 -1.43182,-1.30979 -2.23204,-1.91823 -4.42449,-3.3642 -14.33624,-12.76455 -18.46302,-17.51043 -8.54706,-9.82929 -14.14199,-20.53996 -16.23973,-31.08854 -0.52667,-2.64843 -0.6052,-3.84842 -0.60599,-9.26042 -7.9e-4,-5.43556 0.0757,-6.60046 0.60843,-9.26042 1.16224,-5.80359 2.75687,-10.13828 5.60391,-15.23314 3.67231,-6.5717 9.71195,-13.24268 15.99925,-17.671688 1.16417,-0.82009 2.23573,-1.58035 2.38125,-1.68947 1.4402,-1.07997 8.29477,-4.42126 10.61524,-5.17445 8.82802,-2.86542 16.49297,-3.16741 23.78059,-0.93692 8.91014,2.72708 15.75269,8.95126 19.22751,17.489888 0.41169,1.01165 0.74853,1.88789 0.74853,1.94719 0,0.0593 -0.95157,-0.37061 -2.11461,-0.95537 -5.0009,-2.51441 -11.46792,-4.60312 -17.72914,-5.72614 -3.01191,-0.54023 -10.95647,-0.62258 -14.09867,-0.14616 -6.57854,0.99745 -13.22875,3.92402 -18.38675,8.09149 -5.49464,4.43947 -9.74405,11.44606 -11.03352,18.19249 -1.59713,8.35611 -0.0623,15.8058 4.9249,23.90499 2.65573,4.31285 8.94737,10.63303 15.443,15.51307 1.97459,1.48347 7.99326,5.65713 13.22984,9.17426 6.30154,4.23242 7.28644,5.33532 7.48171,8.37811 0.0944,1.47049 0.006,2.28417 -0.35657,3.29321 -0.94128,2.61761 -4.11912,5.70339 -7.78835,7.56273 -2.42239,1.22751 -9.35912,3.83591 -10.20118,3.83591 -0.01,0 -0.36718,-0.36538 -0.79459,-0.81196 z M 21.7757,106.00727 C 17.63598,99.710902 13.89137,91.912732 11.56255,84.738292 9.9442595,79.752802 7.4874895,69.587602 7.8203995,69.254682 c 0.0779,-0.0779 0.48555,-0.0107 0.90591,0.14928 2.1296505,0.81053 6.7729205,1.86513 10.5538805,2.39703 3.59783,0.50614 5.34547,0.59382 11.64167,0.58406 4.1305,-0.006 8.16926,-0.14073 9.12812,-0.30361 0.94589,-0.16068 2.85089,-0.41474 4.23333,-0.5646 4.97682,-0.53948 13.22743,-1.99969 22.62188,-4.00365 2.76489,-0.58979 5.86052,-1.22573 6.87917,-1.413198 1.01864,-0.187467 3.63802,-0.704654 5.82083,-1.149302 12.78144,-2.60364 24.07675,-3.402454 33.2052,-2.348307 4.77236,0.551109 12.94944,1.722403 13.22849,1.894862 0.10556,0.06524 1.25022,0.294769 2.5437,0.510063 1.29347,0.215294 3.78052,0.698061 5.52677,1.072812 5.21802,1.11981 13.33951,2.76764 15.74271,3.19415 1.23693,0.21953 2.45826,0.46332 2.71408,0.54175 0.54023,0.16563 5.80186,0.94931 11.30884,1.68437 13.79988,1.84199 27.1099,1.05009 35.38801,-2.10544 1.59534,-0.60813 1.53636,-0.74095 0.99757,2.24647 -0.85815,4.75816 -1.60559,7.53034 -3.7452,13.89062 -1.99037,5.91662 -6.00423,14.473868 -8.62534,18.388538 -2.22226,3.31899 -2.96659,4.34476 -3.16054,4.35559 -0.0989,0.006 -1.01008,-1.09453 -2.02479,-2.44457 -2.8822,-3.83466 -7.13183,-8.301188 -10.36305,-10.891948 -5.21319,-4.1799 -9.18719,-6.60254 -15.14467,-9.23254 -2.4081,-1.06309 -8.1452,-2.74932 -11.44595,-3.36417 -4.6538,-0.86688 -12.53355,-0.87314 -16.66875,-0.0132 -10.06103,2.09213 -17.78451,6.84744 -23.45338,14.44013 -0.92512,1.23907 -1.77428,2.25356 -1.88702,2.25441 -0.11274,7.9e-4 -0.30977,-0.27403 -0.43783,-0.61086 -0.79447,-2.08963 -6.34745,-7.73487 -9.88836,-10.05267 -4.65754,-3.04873 -8.99063,-4.85091 -14.47195,-6.01905 -3.6389,-0.77551 -12.43862,-0.88357 -15.61042,-0.19171 -1.0914,0.23807 -2.4136,0.50328 -2.93821,0.58936 -1.69264,0.27772 -7.198,1.93395 -8.96804,2.69794 -7.24478,3.12702 -14.17917,7.73253 -19.40044,12.88492 -1.70638,1.683858 -5.61954,6.240958 -6.73852,7.847378 -0.45614,0.65484 -1.05013,1.4686 -1.31999,1.80834 l -0.49065,0.61771 z" id="path23"/>
  </g>
</svg>